PathFileType	4	(X/Y/Z)	\\move.snu.ac.kr\motion\Animal\091204_091205_Bird\091205_bird\Project 2\Capture day 2\Session 1\pigeon_016_14markers.trc
DataRate	CameraRate	NumFrames	NumMarkers	Units	OrigDataRate	OrigDataStartFrame	OrigNumFrames
240.0	240.0	9	14	mm	240.0	1	2171
Frame#	Time	20MarkersBird:Head			20MarkersBird:C_back			20MarkersBird:L-back			20MarkersBird:R-back			20MarkersBird:Spine			20MarkersBird:L-shoulder			20MarkersBird:L-elbow			20MarkersBird:L-wrist			20MarkersBird:L-hand			20MarkersBird:L-wing1			20MarkersBird:L-wing10			20MarkersBird:R-shoulder			20MarkersBird:R-elbow			20MarkersBird:R-Wrist			20MarkersBird:R-hand			20MarkersBird:R-wing1			20MarkersBird:R-wing10			20MarkersBird:C_Tail			20MarkersBird:L-Tale			20MarkersBird:R-Tale			
		X1	Y1	Z1	X2	Y2	Z2	X3	Y3	Z3	X4	Y4	Z4	X5	Y5	Z5	X6	Y6	Z6	X7	Y7	Z7	X8	Y8	Z8	X9	Y9	Z9	X10	Y10	Z10	X11	Y11	Z11	X12	Y12	Z12	X13	Y13	Z13	X14	Y14	Z14	X15	Y15	Z15	X16	Y16	Z16	X17	Y17	Z17	X18	Y18	Z18	X19	Y19	Z19	X20	Y20	Z20	

1061	4.417	-1548.72375	1248.46448	990.26349	-1538.18665	1219.63074	1052.43250							-1533.26721	1187.31787	1095.78394	-1569.99683	1227.51367	1027.71301	-1590.07104	1210.78357	1046.91833	-1613.22241	1202.82983	1007.30750	-1636.75818	1192.57788	992.20538							-1520.53833	1218.78186	1013.45496	-1496.35205	1203.91174	1018.10638	-1499.18127	1190.37268	977.11035	-1487.62390	1168.73560	944.30750							-1534.86084	1088.99817	1171.94421	-1616.28821	1128.52026	1136.38757	-1449.67273	1102.87720	1110.10449	
1062	4.421	-1548.45923	1254.65479	989.01050	-1537.07336	1226.06934	1052.54407							-1532.87219	1194.00500	1095.03943	-1568.29663	1234.38721	1027.97937	-1588.22559	1214.42932	1045.00549	-1605.36011	1209.33057	1002.96509	-1623.42993	1197.54053	982.40521							-1519.26721	1226.29688	1013.15009	-1496.77515	1208.24268	1017.11121	-1506.62219	1198.37878	975.72253	-1503.76147	1174.49109	942.82654							-1531.10242	1090.65283	1166.35437	-1613.48547	1131.19580	1134.58618	-1446.50317	1108.64917	1104.49353	
1063	4.425	-1547.78101	1260.23438	987.50940	-1536.37561	1232.12976	1051.85547							-1532.22705	1200.53284	1093.80908	-1566.25195	1240.96460	1028.27368	-1585.43298	1218.56763	1043.76453	-1598.75122	1219.68921	1001.20038	-1610.52222	1206.96790	977.63202							-1518.14941	1232.98523	1012.50812	-1496.73047	1213.31946	1017.03656	-1510.74561	1209.08777	977.30396	-1515.52063	1185.34265	944.40424							-1527.90771	1093.09888	1161.02075	-1610.89709	1134.18115	1132.33179	-1444.09985	1114.77563	1099.84839	
1064	4.429	-1547.12500	1265.66943	985.99310	-1535.44727	1237.69629	1050.25415							-1531.37830	1206.45203	1092.21387	-1564.08850	1246.67346	1027.50586	-1582.71167	1223.60754	1044.32129	-1594.60010	1231.30151	1003.31024	-1600.56567	1219.79224	977.85095							-1517.01770	1239.26843	1011.49670	-1494.58777	1219.84717	1017.51666	-1510.91541	1221.94006	980.12201	-1521.23450	1200.40332	947.33875							-1525.06091	1096.69580	1156.40430	-1608.28284	1137.26050	1129.64197	-1442.24670	1120.79822	1096.51050	
1065	4.433	-1546.37952	1270.96570	984.30139	-1534.20447	1243.46594	1048.21411							-1530.14172	1211.81982	1090.23682	-1562.28528	1252.43970	1026.32349	-1580.58984	1230.05603	1047.48901	-1592.64832	1244.48218	1006.96942	-1595.55957	1233.70679	981.86243							-1515.85669	1245.26135	1010.26605	-1491.87573	1227.14221	1020.25739	-1507.10327	1235.07849	984.14325	-1519.52612	1217.74231	950.35358							-1522.71033	1100.82642	1152.47241	-1606.02710	1140.56873	1126.30029	-1441.11938	1126.11304	1093.86768	
1066	4.438	-1545.58240	1276.09351	982.41840	-1533.08057	1248.79724	1045.52844							-1528.33337	1216.69348	1087.86108	-1560.73706	1257.88757	1024.41479	-1577.87634	1237.30396	1049.72375	-1593.00903	1256.04529	1012.36084	-1595.52417	1246.18762	987.91345							-1514.82263	1250.45081	1008.75708	-1489.01331	1235.68384	1024.32849	-1500.90906	1247.92188	987.77905	-1512.54675	1232.10889	952.67932							-1520.91577	1105.18799	1149.01599	-1603.97742	1144.07764	1122.97083	-1440.34241	1131.41467	1091.97791	
1067	4.442	-1544.53333	1280.89697	980.40381	-1532.06421	1254.10632	1042.77405							-1525.83752	1220.99707	1085.01831	-1559.52246	1263.10352	1022.10834	-1574.24048	1245.50928	1051.69958	-1593.57886	1267.88098	1018.38647	-1600.54504	1257.10498	995.19025							-1513.50684	1255.72119	1007.55487	-1487.17554	1245.52026	1028.67957	-1493.78125	1262.38513	990.51331	-1500.21472	1245.75183	954.03180							-1519.85596	1109.22644	1145.57971	-1602.07629	1147.96545	1119.62915	-1439.54651	1136.52783	1089.92493	
1068	4.446	-1543.51550	1285.90930	978.51746	-1530.88196	1259.14709	1039.92786							-1524.09302	1226.06433	1082.74512	-1558.65515	1267.55542	1019.52557	-1569.25269	1255.50806	1055.03052	-1592.14636	1280.20093	1024.92346	-1607.47681	1267.52185	1003.86798							-1512.13782	1261.87012	1005.95490	-1487.57739	1255.74146	1033.54419	-1486.90662	1274.30701	996.30200	-1485.57581	1257.87402	958.61865							-1519.00720	1112.88623	1141.36694	-1600.34778	1151.94714	1116.47424	-1438.74609	1141.30872	1086.51147	
1069	4.450	-1542.23718	1290.77844	976.75128	-1529.77917	1263.95789	1037.25647							-1523.00769	1231.01343	1080.97009	-1557.81226	1272.25769	1017.25745	-1561.89990	1264.48486	1055.61597	-1588.16211	1291.39734	1032.16711	-1612.30884	1274.91968	1018.83868							-1511.56152	1266.49451	1004.17957	-1489.37231	1266.09375	1039.25220	-1483.41638	1286.58374	1003.15338	-1471.54553	1269.54456	967.15930							-1518.08960	1116.46521	1137.04065	-1599.13855	1156.80298	1113.51575	-1438.34290	1144.58545	1082.76257	
